<?xml version="1.0"?>
<svg xmlns="http://www.w3.org/2000/svg" xmlns:xlink="http://www.w3.org/1999/xlink" version="1.1" id="Layer_1" x="0px" y="0px" viewBox="0 0 512 512" style="enable-background:new 0 0 512 512;" xml:space="preserve" width="512px" height="512px" class=""><g><g>
	<g>
		<path d="M276.266,291.299c-6.003,0-10.855,4.852-10.855,10.855c0,5.992,4.852,10.855,10.855,10.855    c5.992,0,10.855-4.863,10.855-10.855C287.121,296.151,282.258,291.299,276.266,291.299z" data-original="#000000" class="active-path" data-old_color="#ffffff" fill="#ffffff"/>
	</g>
</g><g>
	<g>
		<path d="M236.103,291.299c-6.003,0-10.855,4.852-10.855,10.855c0,5.992,4.852,10.855,10.855,10.855    c5.992,0,10.855-4.863,10.855-10.855C246.958,296.151,242.095,291.299,236.103,291.299z" data-original="#000000" class="active-path" data-old_color="#ffffff" fill="#ffffff"/>
	</g>
</g><g>
	<g>
		<path d="M458.247,131.961c-9.107,0-17.884,2.273-25.681,6.525c-5.725-11.129-12.502-21.725-20.251-31.615    c-3.697-4.72-10.521-5.547-15.239-1.85c-4.72,3.697-5.547,10.521-1.85,15.239c9.378,11.969,17.169,25.086,23.16,38.993    c9.144,21.191,13.973,43.729,14.352,66.925c0.011,1.003,0.022,2.007,0.022,3.01v85.579c0,79.845-64.958,144.803-144.803,144.803    h-63.913c-79.845,0-144.803-64.958-144.803-144.803v-85.579c0-1.014,0.011-2.017,0.021-2.955    c0.39-23.277,5.22-45.813,14.354-66.982C121.603,94.358,185.344,52.428,256,52.428c32.516,0,64.292,8.897,91.893,25.727    c5.117,3.121,11.797,1.502,14.919-3.617c3.121-5.118,1.501-11.798-3.617-14.919C328.188,40.713,292.504,30.719,256,30.719    c-74.821,0-142.729,41.882-176.571,107.769c-7.799-4.252-16.574-6.526-25.675-6.526C24.113,131.961,0,156.08,0,185.725    c0,29.64,24.113,53.753,53.753,53.753c1.266,0,2.524-0.055,3.777-0.142v75.432c0,91.815,74.697,166.513,166.513,166.513h63.913    c91.815,0,166.513-74.697,166.513-166.513v-75.432c1.254,0.087,2.512,0.142,3.777,0.142c29.64,0,53.753-24.113,53.753-53.753    C512,156.08,487.886,131.961,458.247,131.961z M57.881,217.477c-1.362,0.175-2.735,0.292-4.128,0.292    c-17.668,0-32.043-14.375-32.043-32.043c0-17.675,14.375-32.054,32.043-32.054c6.007,0,11.777,1.661,16.78,4.749    C63.31,177.315,59.069,197.102,57.881,217.477z M458.247,217.769c-1.389,0-2.763-0.117-4.124-0.291    c-1.178-20.34-5.422-40.14-12.658-59.061c4.999-3.085,10.769-4.745,16.781-4.745c17.668,0,32.043,14.379,32.043,32.054    C490.29,203.394,475.915,217.769,458.247,217.769z" data-original="#000000" class="active-path" data-old_color="#ffffff" fill="#ffffff"/>
	</g>
</g><g>
	<g>
		<path d="M414.621,231.001c0-49.541-40.304-89.845-89.845-89.845c-26.734,0-51.868,11.974-68.776,32.059    c-16.907-20.085-42.036-32.059-68.765-32.059c-49.547,0-89.856,40.304-89.856,89.845c0,43.364,30.51,79.624,71.68,88.017    c-1.93,7.377-2.904,14.977-2.904,22.723c0,49.54,40.304,89.845,89.845,89.845c49.547,0,89.856-40.304,89.856-89.845    c0-7.749-0.974-15.351-2.906-22.725C384.115,310.621,414.621,274.361,414.621,231.001z M327.824,299.071    c-3.581,0.159-6.854,2.074-8.744,5.12c-1.891,3.046-2.155,6.829-0.708,10.108c3.831,8.677,5.773,17.91,5.773,27.443    c0,37.57-30.57,68.136-68.147,68.136c-37.57,0-68.136-30.565-68.136-68.136c0-9.527,1.94-18.764,5.766-27.452    c1.445-3.279,1.177-7.059-0.714-10.104c-1.891-3.044-5.161-4.957-8.741-5.116c-36.497-1.613-65.087-31.514-65.087-68.069    c0-37.57,30.57-68.136,68.147-68.136c24.495,0,47.225,13.271,59.319,34.633c1.927,3.404,5.535,5.508,9.446,5.508    c3.911,0,7.519-2.104,9.446-5.508c12.094-21.362,34.828-34.633,59.33-34.633c37.57,0,68.136,30.566,68.136,68.136    C392.912,267.558,364.321,297.457,327.824,299.071z" data-original="#000000" class="active-path" data-old_color="#ffffff" fill="#ffffff"/>
	</g>
</g><g>
	<g>
		<path d="M192.814,214.588c-17.52,0-31.772,14.252-31.772,31.772c0,5.995,4.86,10.855,10.855,10.855s10.855-4.86,10.855-10.855    c0-5.548,4.515-10.062,10.062-10.062c5.548,0,10.062,4.515,10.062,10.062c0,5.995,4.86,10.855,10.855,10.855    c5.995,0,10.855-4.86,10.855-10.855C224.586,228.841,210.334,214.588,192.814,214.588z" data-original="#000000" class="active-path" data-old_color="#ffffff" fill="#ffffff"/>
	</g>
</g><g>
	<g>
		<path d="M319.197,214.588c-17.52,0-31.772,14.252-31.772,31.772c0,5.995,4.86,10.855,10.855,10.855s10.855-4.86,10.855-10.855    c0-5.548,4.515-10.062,10.062-10.062c5.548,0,10.062,4.515,10.062,10.062c0,5.995,4.86,10.855,10.855,10.855    s10.855-4.86,10.855-10.855C350.969,228.841,336.716,214.588,319.197,214.588z" data-original="#000000" class="active-path" data-old_color="#ffffff" fill="#ffffff"/>
	</g>
</g><g>
	<g>
		<path d="M276.917,340.732c-5.995,0-10.855,4.86-10.855,10.855c0,5.548-4.515,10.062-10.062,10.062    c-5.548,0-10.062-4.515-10.062-10.062c0-5.995-4.86-10.855-10.855-10.855s-10.855,4.86-10.855,10.855    c0,17.52,14.252,31.772,31.772,31.772s31.772-14.252,31.772-31.772C287.772,345.592,282.912,340.732,276.917,340.732z" data-original="#000000" class="active-path" data-old_color="#ffffff" fill="#ffffff"/>
	</g>
</g></g> </svg>
